# This file uses centimeters as units for non-parametric coordinates.

mtllib tank.mtl
g default
v -1.000000 -0.250000 1.000000
v 1.000000 -0.250000 1.000000
v -1.000000 0.250000 1.000000
v 1.000000 0.250000 1.000000
v -1.000000 0.250000 -1.000000
v 1.000000 0.250000 -1.000000
v -1.000000 -0.250000 -1.000000
v 1.000000 -0.250000 -1.000000
vt 0.375000 0.000000
vt 0.625000 0.000000
vt 0.375000 0.250000
vt 0.625000 0.250000
vt 0.375000 0.500000
vt 0.625000 0.500000
vt 0.375000 0.750000
vt 0.625000 0.750000
vt 0.375000 1.000000
vt 0.625000 1.000000
vt 0.875000 0.000000
vt 0.875000 0.250000
vt 0.125000 0.000000
vt 0.125000 0.250000
vn 0.000000 0.000000 1.000000
vn 0.000000 0.000000 1.000000
vn 0.000000 0.000000 1.000000
vn 0.000000 0.000000 1.000000
vn 0.000000 1.000000 0.000000
vn 0.000000 1.000000 0.000000
vn 0.000000 1.000000 0.000000
vn 0.000000 1.000000 0.000000
vn 0.000000 0.000000 -1.000000
vn 0.000000 0.000000 -1.000000
vn 0.000000 0.000000 -1.000000
vn 0.000000 0.000000 -1.000000
vn 0.000000 -1.000000 0.000000
vn 0.000000 -1.000000 0.000000
vn 0.000000 -1.000000 0.000000
vn 0.000000 -1.000000 0.000000
vn 1.000000 0.000000 0.000000
vn 1.000000 0.000000 0.000000
vn 1.000000 0.000000 0.000000
vn 1.000000 0.000000 0.000000
vn -1.000000 0.000000 0.000000
vn -1.000000 0.000000 0.000000
vn -1.000000 0.000000 0.000000
vn -1.000000 0.000000 0.000000
s 1
g pCube1
usemtl initialShadingGroup
f 1/1/1 2/2/2 3/3/3
f 3/3/3 2/2/2 4/4/4
s 2
f 3/3/5 4/4/6 5/5/7
f 5/5/7 4/4/6 6/6/8
s 3
f 5/5/9 6/6/10 7/7/11
f 7/7/11 6/6/10 8/8/12
s 4
f 7/7/13 8/8/14 1/9/15
f 1/9/15 8/8/14 2/10/16
s 5
f 2/2/17 8/11/18 4/4/19
f 4/4/19 8/11/18 6/12/20
s 6
f 7/13/21 1/1/22 5/14/23
f 5/14/23 1/1/22 3/3/24
g default
v -0.332636 0.288927 0.646978
v 0.332636 0.288927 0.646978
v -0.332636 0.711073 0.646978
v 0.332636 0.711073 0.646978
v -0.332636 0.711073 -0.646978
v 0.332636 0.711073 -0.646978
v -0.332636 0.288927 -0.646978
v 0.332636 0.288927 -0.646978
vt 0.375000 0.000000
vt 0.625000 0.000000
vt 0.375000 0.250000
vt 0.625000 0.250000
vt 0.375000 0.500000
vt 0.625000 0.500000
vt 0.375000 0.750000
vt 0.625000 0.750000
vt 0.375000 1.000000
vt 0.625000 1.000000
vt 0.875000 0.000000
vt 0.875000 0.250000
vt 0.125000 0.000000
vt 0.125000 0.250000
vn 0.000000 0.000000 1.000000
vn 0.000000 0.000000 1.000000
vn 0.000000 0.000000 1.000000
vn 0.000000 0.000000 1.000000
vn 0.000000 1.000000 0.000000
vn 0.000000 1.000000 0.000000
vn 0.000000 1.000000 0.000000
vn 0.000000 1.000000 0.000000
vn 0.000000 0.000000 -1.000000
vn 0.000000 0.000000 -1.000000
vn 0.000000 0.000000 -1.000000
vn 0.000000 0.000000 -1.000000
vn 0.000000 -1.000000 0.000000
vn 0.000000 -1.000000 0.000000
vn 0.000000 -1.000000 0.000000
vn 0.000000 -1.000000 0.000000
vn 1.000000 0.000000 0.000000
vn 1.000000 0.000000 0.000000
vn 1.000000 0.000000 0.000000
vn 1.000000 0.000000 0.000000
vn -1.000000 0.000000 0.000000
vn -1.000000 0.000000 0.000000
vn -1.000000 0.000000 0.000000
vn -1.000000 0.000000 0.000000
s 1
g pCube2
usemtl initialShadingGroup
f 9/15/25 10/16/26 11/17/27
f 11/17/27 10/16/26 12/18/28
s 2
f 11/17/29 12/18/30 13/19/31
f 13/19/31 12/18/30 14/20/32
s 3
f 13/19/33 14/20/34 15/21/35
f 15/21/35 14/20/34 16/22/36
s 4
f 15/21/37 16/22/38 9/23/39
f 9/23/39 16/22/38 10/24/40
s 5
f 10/16/41 16/25/42 12/18/43
f 12/18/43 16/25/42 14/26/44
s 6
f 15/27/45 9/15/46 13/28/47
f 13/28/47 9/15/46 11/17/48
g default
v 0.162298 0.552734 0.582684
v 0.138059 0.600306 0.582684
v 0.100306 0.638059 0.582684
v 0.052734 0.662298 0.582684
v 0.000000 0.670650 0.582684
v -0.052734 0.662298 0.582684
v -0.100306 0.638059 0.582684
v -0.138059 0.600305 0.582684
v -0.162298 0.552734 0.582684
v -0.170650 0.500000 0.582684
v -0.162298 0.447266 0.582684
v -0.138059 0.399694 0.582684
v -0.100306 0.361941 0.582684
v -0.052734 0.337702 0.582684
v -0.000000 0.329350 0.582684
v 0.052734 0.337702 0.582684
v 0.100305 0.361941 0.582684
v 0.138059 0.399695 0.582684
v 0.162298 0.447266 0.582684
v 0.170650 0.500000 0.582684
v 0.162298 0.552734 2.417316
v 0.138059 0.600306 2.417316
v 0.100306 0.638059 2.417316
v 0.052734 0.662298 2.417316
v 0.000000 0.670650 2.417316
v -0.052734 0.662298 2.417316
v -0.100306 0.638059 2.417316
v -0.138059 0.600306 2.417316
v -0.162298 0.552734 2.417316
v -0.170650 0.500000 2.417316
v -0.162298 0.447266 2.417316
v -0.138059 0.399695 2.417316
v -0.100306 0.361941 2.417316
v -0.052734 0.337702 2.417316
v -0.000000 0.329350 2.417316
v 0.052734 0.337702 2.417316
v 0.100305 0.361941 2.417316
v 0.138059 0.399695 2.417316
v 0.162298 0.447266 2.417316
v 0.170650 0.500000 2.417316
v 0.000000 0.500000 0.582684
v 0.000000 0.500000 2.417316
vt 0.648603 0.107966
vt 0.626409 0.064408
vt 0.591842 0.029841
vt 0.548284 0.007647
vt 0.500000 -0.000000
vt 0.451716 0.007647
vt 0.408159 0.029841
vt 0.373591 0.064409
vt 0.351397 0.107966
vt 0.343750 0.156250
vt 0.351397 0.204534
vt 0.373591 0.248091
vt 0.408159 0.282659
vt 0.451716 0.304853
vt 0.500000 0.312500
vt 0.548284 0.304853
vt 0.591841 0.282659
vt 0.626409 0.248091
vt 0.648603 0.204534
vt 0.656250 0.156250
vt 0.375000 0.312500
vt 0.387500 0.312500
vt 0.400000 0.312500
vt 0.412500 0.312500
vt 0.425000 0.312500
vt 0.437500 0.312500
vt 0.450000 0.312500
vt 0.462500 0.312500
vt 0.475000 0.312500
vt 0.487500 0.312500
vt 0.500000 0.312500
vt 0.512500 0.312500
vt 0.525000 0.312500
vt 0.537500 0.312500
vt 0.550000 0.312500
vt 0.562500 0.312500
vt 0.575000 0.312500
vt 0.587500 0.312500
vt 0.600000 0.312500
vt 0.612500 0.312500
vt 0.625000 0.312500
vt 0.375000 0.688440
vt 0.387500 0.688440
vt 0.400000 0.688440
vt 0.412500 0.688440
vt 0.425000 0.688440
vt 0.437500 0.688440
vt 0.450000 0.688440
vt 0.462500 0.688440
vt 0.475000 0.688440
vt 0.487500 0.688440
vt 0.500000 0.688440
vt 0.512500 0.688440
vt 0.525000 0.688440
vt 0.537500 0.688440
vt 0.550000 0.688440
vt 0.562500 0.688440
vt 0.575000 0.688440
vt 0.587500 0.688440
vt 0.600000 0.688440
vt 0.612500 0.688440
vt 0.625000 0.688440
vt 0.648603 0.795466
vt 0.626409 0.751908
vt 0.591842 0.717341
vt 0.548284 0.695147
vt 0.500000 0.687500
vt 0.451716 0.695147
vt 0.408159 0.717341
vt 0.373591 0.751909
vt 0.351397 0.795466
vt 0.343750 0.843750
vt 0.351397 0.892034
vt 0.373591 0.935591
vt 0.408159 0.970159
vt 0.451716 0.992353
vt 0.500000 1.000000
vt 0.548284 0.992353
vt 0.591841 0.970159
vt 0.626409 0.935591
vt 0.648603 0.892034
vt 0.656250 0.843750
vt 0.500000 0.150000
vt 0.500000 0.837500
vn 0.966026 0.258445 0.000000
vn 0.838881 0.544315 0.000000
vn 0.933442 0.358728 0.000000
vn 0.776903 0.629620 -0.000000
vn 0.629620 0.776903 -0.000000
vn 0.544315 0.838881 -0.000000
vn 0.358728 0.933442 -0.000000
vn 0.258446 0.966026 0.000000
vn 0.052721 0.998609 0.000000
vn -0.052721 0.998609 0.000000
vn -0.258446 0.966026 0.000000
vn -0.358729 0.933442 0.000000
vn -0.544316 0.838881 0.000000
vn -0.629621 0.776903 0.000000
vn -0.776903 0.629620 0.000000
vn -0.838881 0.544315 0.000000
vn -0.933442 0.358728 0.000000
vn -0.966026 0.258446 0.000000
vn -0.998609 0.052721 0.000000
vn -0.998609 -0.052721 0.000000
vn -0.966026 -0.258446 0.000000
vn -0.933442 -0.358728 0.000000
vn -0.838881 -0.544315 0.000000
vn -0.776903 -0.629620 0.000000
vn -0.629620 -0.776903 0.000000
vn -0.544315 -0.838881 0.000000
vn -0.358728 -0.933442 0.000000
vn -0.258446 -0.966026 0.000000
vn -0.052721 -0.998609 0.000000
vn 0.052722 -0.998609 0.000000
vn 0.258446 -0.966026 0.000000
vn 0.358728 -0.933442 0.000000
vn 0.544315 -0.838881 0.000000
vn 0.629620 -0.776903 0.000000
vn 0.776903 -0.629620 0.000000
vn 0.838881 -0.544315 0.000000
vn 0.933442 -0.358728 0.000000
vn 0.966026 -0.258446 0.000000
vn 0.998609 -0.052722 0.000000
vn 0.998609 0.052720 0.000000
vn 0.000000 0.000000 -1.000000
vn 0.000000 0.000000 -1.000000
vn -0.000000 0.000000 -1.000000
vn -0.000001 0.000000 -1.000000
vn -0.000001 0.000000 -1.000000
vn 0.000000 0.000000 -1.000000
vn 0.000001 0.000000 -1.000000
vn 0.000000 0.000000 -1.000000
vn -0.000000 0.000000 -1.000000
vn 0.000000 0.000000 -1.000000
vn 0.000000 0.000000 -1.000000
vn -0.000000 0.000000 -1.000000
vn -0.000000 0.000000 -1.000000
vn 0.000000 0.000000 -1.000000
vn 0.000001 0.000000 -1.000000
vn -0.000000 0.000000 -1.000000
vn -0.000001 0.000000 -1.000000
vn 0.000000 0.000000 -1.000000
vn 0.000000 0.000000 -1.000000
vn -0.000000 0.000000 -1.000000
vn 0.000000 0.000000 -1.000000
vn 0.000002 0.000000 1.000000
vn 0.000002 0.000000 1.000000
vn -0.000000 0.000000 1.000000
vn 0.000000 0.000000 1.000000
vn 0.000000 0.000000 1.000000
vn 0.000000 0.000000 1.000000
vn 0.000000 0.000000 1.000000
vn 0.000000 0.000000 1.000000
vn -0.000002 0.000000 1.000000
vn -0.000002 0.000000 1.000000
vn 0.000000 0.000000 1.000000
vn -0.000002 0.000000 1.000000
vn -0.000000 0.000000 1.000000
vn 0.000002 0.000000 1.000000
vn 0.000000 0.000000 1.000000
vn -0.000003 0.000000 1.000000
vn -0.000003 0.000000 1.000000
vn 0.000000 0.000000 1.000000
vn 0.000002 0.000000 1.000000
vn 0.000002 0.000000 1.000000
vn 0.000000 0.000000 1.000000
s 1
g pCylinder1
usemtl initialShadingGroup
f 17/49/49 18/50/50 37/70/51
f 37/70/51 18/50/50 38/71/52
f 18/50/50 19/51/53 38/71/52
f 38/71/52 19/51/53 39/72/54
f 19/51/53 20/52/55 39/72/54
f 39/72/54 20/52/55 40/73/56
f 20/52/55 21/53/57 40/73/56
f 40/73/56 21/53/57 41/74/58
f 21/53/57 22/54/59 41/74/58
f 41/74/58 22/54/59 42/75/60
f 22/54/59 23/55/61 42/75/60
f 42/75/60 23/55/61 43/76/62
f 23/55/61 24/56/63 43/76/62
f 43/76/62 24/56/63 44/77/64
f 24/56/63 25/57/65 44/77/64
f 44/77/64 25/57/65 45/78/66
f 25/57/65 26/58/67 45/78/66
f 45/78/66 26/58/67 46/79/68
f 26/58/67 27/59/69 46/79/68
f 46/79/68 27/59/69 47/80/70
f 27/59/69 28/60/71 47/80/70
f 47/80/70 28/60/71 48/81/72
f 28/60/71 29/61/73 48/81/72
f 48/81/72 29/61/73 49/82/74
f 29/61/73 30/62/75 49/82/74
f 49/82/74 30/62/75 50/83/76
f 30/62/75 31/63/77 50/83/76
f 50/83/76 31/63/77 51/84/78
f 31/63/77 32/64/79 51/84/78
f 51/84/78 32/64/79 52/85/80
f 32/64/79 33/65/81 52/85/80
f 52/85/80 33/65/81 53/86/82
f 33/65/81 34/66/83 53/86/82
f 53/86/82 34/66/83 54/87/84
f 34/66/83 35/67/85 54/87/84
f 54/87/84 35/67/85 55/88/86
f 35/67/85 36/68/87 55/88/86
f 55/88/86 36/68/87 56/89/88
f 36/68/87 17/69/49 56/89/88
f 56/89/88 17/69/49 37/90/51
s 2
f 18/30/89 17/29/90 57/111/91
f 19/31/92 18/30/89 57/111/91
f 20/32/93 19/31/92 57/111/91
f 21/33/94 20/32/93 57/111/91
f 22/34/95 21/33/94 57/111/91
f 23/35/96 22/34/95 57/111/91
f 24/36/97 23/35/96 57/111/91
f 25/37/98 24/36/97 57/111/91
f 26/38/99 25/37/98 57/111/91
f 27/39/100 26/38/99 57/111/91
f 28/40/101 27/39/100 57/111/91
f 29/41/102 28/40/101 57/111/91
f 30/42/103 29/41/102 57/111/91
f 31/43/104 30/42/103 57/111/91
f 32/44/105 31/43/104 57/111/91
f 33/45/106 32/44/105 57/111/91
f 34/46/107 33/45/106 57/111/91
f 35/47/108 34/46/107 57/111/91
f 36/48/109 35/47/108 57/111/91
f 17/29/90 36/48/109 57/111/91
s 3
f 37/109/110 38/108/111 58/112/112
f 38/108/111 39/107/113 58/112/112
f 39/107/113 40/106/114 58/112/112
f 40/106/114 41/105/115 58/112/112
f 41/105/115 42/104/116 58/112/112
f 42/104/116 43/103/117 58/112/112
f 43/103/117 44/102/118 58/112/112
f 44/102/118 45/101/119 58/112/112
f 45/101/119 46/100/120 58/112/112
f 46/100/120 47/99/121 58/112/112
f 47/99/121 48/98/122 58/112/112
f 48/98/122 49/97/123 58/112/112
f 49/97/123 50/96/124 58/112/112
f 50/96/124 51/95/125 58/112/112
f 51/95/125 52/94/126 58/112/112
f 52/94/126 53/93/127 58/112/112
f 53/93/127 54/92/128 58/112/112
f 54/92/128 55/91/129 58/112/112
f 55/91/129 56/110/130 58/112/112
f 56/110/130 37/109/110 58/112/112
g default
v -1.000000 -0.250000 1.000000
v 1.000000 -0.250000 1.000000
v -1.000000 0.250000 1.000000
v 1.000000 0.250000 1.000000
v -1.000000 0.250000 -1.000000
v 1.000000 0.250000 -1.000000
v -1.000000 -0.250000 -1.000000
v 1.000000 -0.250000 -1.000000
vt 0.375000 0.000000
vt 0.625000 0.000000
vt 0.375000 0.250000
vt 0.625000 0.250000
vt 0.375000 0.500000
vt 0.625000 0.500000
vt 0.375000 0.750000
vt 0.625000 0.750000
vt 0.375000 1.000000
vt 0.625000 1.000000
vt 0.875000 0.000000
vt 0.875000 0.250000
vt 0.125000 0.000000
vt 0.125000 0.250000
vn 0.000000 0.000000 1.000000
vn 0.000000 0.000000 1.000000
vn 0.000000 0.000000 1.000000
vn 0.000000 0.000000 1.000000
vn 0.000000 1.000000 0.000000
vn 0.000000 1.000000 0.000000
vn 0.000000 1.000000 0.000000
vn 0.000000 1.000000 0.000000
vn 0.000000 0.000000 -1.000000
vn 0.000000 0.000000 -1.000000
vn 0.000000 0.000000 -1.000000
vn 0.000000 0.000000 -1.000000
vn 0.000000 -1.000000 0.000000
vn 0.000000 -1.000000 0.000000
vn 0.000000 -1.000000 0.000000
vn 0.000000 -1.000000 0.000000
vn 1.000000 0.000000 0.000000
vn 1.000000 0.000000 0.000000
vn 1.000000 0.000000 0.000000
vn 1.000000 0.000000 0.000000
vn -1.000000 0.000000 0.000000
vn -1.000000 0.000000 0.000000
vn -1.000000 0.000000 0.000000
vn -1.000000 0.000000 0.000000
s 1
g pCube1
f 59/113/131 60/114/132 61/115/133
f 61/115/133 60/114/132 62/116/134
s 2
f 61/115/135 62/116/136 63/117/137
f 63/117/137 62/116/136 64/118/138
s 3
f 63/117/139 64/118/140 65/119/141
f 65/119/141 64/118/140 66/120/142
s 4
f 65/119/143 66/120/144 59/121/145
f 59/121/145 66/120/144 60/122/146
s 5
f 60/114/147 66/123/148 62/116/149
f 62/116/149 66/123/148 64/124/150
s 6
f 65/125/151 59/113/152 63/126/153
f 63/126/153 59/113/152 61/115/154
g default
v -0.332636 0.288927 0.646978
v 0.332636 0.288927 0.646978
v -0.332636 0.711073 0.646978
v 0.332636 0.711073 0.646978
v -0.332636 0.711073 -0.646978
v 0.332636 0.711073 -0.646978
v -0.332636 0.288927 -0.646978
v 0.332636 0.288927 -0.646978
vt 0.375000 0.000000
vt 0.625000 0.000000
vt 0.375000 0.250000
vt 0.625000 0.250000
vt 0.375000 0.500000
vt 0.625000 0.500000
vt 0.375000 0.750000
vt 0.625000 0.750000
vt 0.375000 1.000000
vt 0.625000 1.000000
vt 0.875000 0.000000
vt 0.875000 0.250000
vt 0.125000 0.000000
vt 0.125000 0.250000
vn 0.000000 0.000000 1.000000
vn 0.000000 0.000000 1.000000
vn 0.000000 0.000000 1.000000
vn 0.000000 0.000000 1.000000
vn 0.000000 1.000000 0.000000
vn 0.000000 1.000000 0.000000
vn 0.000000 1.000000 0.000000
vn 0.000000 1.000000 0.000000
vn 0.000000 0.000000 -1.000000
vn 0.000000 0.000000 -1.000000
vn 0.000000 0.000000 -1.000000
vn 0.000000 0.000000 -1.000000
vn 0.000000 -1.000000 0.000000
vn 0.000000 -1.000000 0.000000
vn 0.000000 -1.000000 0.000000
vn 0.000000 -1.000000 0.000000
vn 1.000000 0.000000 0.000000
vn 1.000000 0.000000 0.000000
vn 1.000000 0.000000 0.000000
vn 1.000000 0.000000 0.000000
vn -1.000000 0.000000 0.000000
vn -1.000000 0.000000 0.000000
vn -1.000000 0.000000 0.000000
vn -1.000000 0.000000 0.000000
s 1
g pCube2
f 67/127/155 68/128/156 69/129/157
f 69/129/157 68/128/156 70/130/158
s 2
f 69/129/159 70/130/160 71/131/161
f 71/131/161 70/130/160 72/132/162
s 3
f 71/131/163 72/132/164 73/133/165
f 73/133/165 72/132/164 74/134/166
s 4
f 73/133/167 74/134/168 67/135/169
f 67/135/169 74/134/168 68/136/170
s 5
f 68/128/171 74/137/172 70/130/173
f 70/130/173 74/137/172 72/138/174
s 6
f 73/139/175 67/127/176 71/140/177
f 71/140/177 67/127/176 69/129/178
g default
v 0.162298 0.552734 0.582684
v 0.138059 0.600306 0.582684
v 0.100306 0.638059 0.582684
v 0.052734 0.662298 0.582684
v 0.000000 0.670650 0.582684
v -0.052734 0.662298 0.582684
v -0.100306 0.638059 0.582684
v -0.138059 0.600305 0.582684
v -0.162298 0.552734 0.582684
v -0.170650 0.500000 0.582684
v -0.162298 0.447266 0.582684
v -0.138059 0.399694 0.582684
v -0.100306 0.361941 0.582684
v -0.052734 0.337702 0.582684
v -0.000000 0.329350 0.582684
v 0.052734 0.337702 0.582684
v 0.100305 0.361941 0.582684
v 0.138059 0.399695 0.582684
v 0.162298 0.447266 0.582684
v 0.170650 0.500000 0.582684
v 0.162298 0.552734 2.417316
v 0.138059 0.600306 2.417316
v 0.100306 0.638059 2.417316
v 0.052734 0.662298 2.417316
v 0.000000 0.670650 2.417316
v -0.052734 0.662298 2.417316
v -0.100306 0.638059 2.417316
v -0.138059 0.600306 2.417316
v -0.162298 0.552734 2.417316
v -0.170650 0.500000 2.417316
v -0.162298 0.447266 2.417316
v -0.138059 0.399695 2.417316
v -0.100306 0.361941 2.417316
v -0.052734 0.337702 2.417316
v -0.000000 0.329350 2.417316
v 0.052734 0.337702 2.417316
v 0.100305 0.361941 2.417316
v 0.138059 0.399695 2.417316
v 0.162298 0.447266 2.417316
v 0.170650 0.500000 2.417316
v 0.000000 0.500000 0.582684
v 0.000000 0.500000 2.417316
vt 0.648603 0.107966
vt 0.626409 0.064408
vt 0.591842 0.029841
vt 0.548284 0.007647
vt 0.500000 -0.000000
vt 0.451716 0.007647
vt 0.408159 0.029841
vt 0.373591 0.064409
vt 0.351397 0.107966
vt 0.343750 0.156250
vt 0.351397 0.204534
vt 0.373591 0.248091
vt 0.408159 0.282659
vt 0.451716 0.304853
vt 0.500000 0.312500
vt 0.548284 0.304853
vt 0.591841 0.282659
vt 0.626409 0.248091
vt 0.648603 0.204534
vt 0.656250 0.156250
vt 0.375000 0.312500
vt 0.387500 0.312500
vt 0.400000 0.312500
vt 0.412500 0.312500
vt 0.425000 0.312500
vt 0.437500 0.312500
vt 0.450000 0.312500
vt 0.462500 0.312500
vt 0.475000 0.312500
vt 0.487500 0.312500
vt 0.500000 0.312500
vt 0.512500 0.312500
vt 0.525000 0.312500
vt 0.537500 0.312500
vt 0.550000 0.312500
vt 0.562500 0.312500
vt 0.575000 0.312500
vt 0.587500 0.312500
vt 0.600000 0.312500
vt 0.612500 0.312500
vt 0.625000 0.312500
vt 0.375000 0.688440
vt 0.387500 0.688440
vt 0.400000 0.688440
vt 0.412500 0.688440
vt 0.425000 0.688440
vt 0.437500 0.688440
vt 0.450000 0.688440
vt 0.462500 0.688440
vt 0.475000 0.688440
vt 0.487500 0.688440
vt 0.500000 0.688440
vt 0.512500 0.688440
vt 0.525000 0.688440
vt 0.537500 0.688440
vt 0.550000 0.688440
vt 0.562500 0.688440
vt 0.575000 0.688440
vt 0.587500 0.688440
vt 0.600000 0.688440
vt 0.612500 0.688440
vt 0.625000 0.688440
vt 0.648603 0.795466
vt 0.626409 0.751908
vt 0.591842 0.717341
vt 0.548284 0.695147
vt 0.500000 0.687500
vt 0.451716 0.695147
vt 0.408159 0.717341
vt 0.373591 0.751909
vt 0.351397 0.795466
vt 0.343750 0.843750
vt 0.351397 0.892034
vt 0.373591 0.935591
vt 0.408159 0.970159
vt 0.451716 0.992353
vt 0.500000 1.000000
vt 0.548284 0.992353
vt 0.591841 0.970159
vt 0.626409 0.935591
vt 0.648603 0.892034
vt 0.656250 0.843750
vt 0.500000 0.150000
vt 0.500000 0.837500
vn 0.966026 0.258445 0.000000
vn 0.838881 0.544315 0.000000
vn 0.933442 0.358728 0.000000
vn 0.776903 0.629620 -0.000000
vn 0.629620 0.776903 -0.000000
vn 0.544315 0.838881 -0.000000
vn 0.358728 0.933442 -0.000000
vn 0.258446 0.966026 0.000000
vn 0.052721 0.998609 0.000000
vn -0.052721 0.998609 0.000000
vn -0.258446 0.966026 0.000000
vn -0.358729 0.933442 0.000000
vn -0.544316 0.838881 0.000000
vn -0.629621 0.776903 0.000000
vn -0.776903 0.629620 0.000000
vn -0.838881 0.544315 0.000000
vn -0.933442 0.358728 0.000000
vn -0.966026 0.258446 0.000000
vn -0.998609 0.052721 0.000000
vn -0.998609 -0.052721 0.000000
vn -0.966026 -0.258446 0.000000
vn -0.933442 -0.358728 0.000000
vn -0.838881 -0.544315 0.000000
vn -0.776903 -0.629620 0.000000
vn -0.629620 -0.776903 0.000000
vn -0.544315 -0.838881 0.000000
vn -0.358728 -0.933442 0.000000
vn -0.258446 -0.966026 0.000000
vn -0.052721 -0.998609 0.000000
vn 0.052722 -0.998609 0.000000
vn 0.258446 -0.966026 0.000000
vn 0.358728 -0.933442 0.000000
vn 0.544315 -0.838881 0.000000
vn 0.629620 -0.776903 0.000000
vn 0.776903 -0.629620 0.000000
vn 0.838881 -0.544315 0.000000
vn 0.933442 -0.358728 0.000000
vn 0.966026 -0.258446 0.000000
vn 0.998609 -0.052722 0.000000
vn 0.998609 0.052720 0.000000
vn 0.000000 0.000000 -1.000000
vn 0.000000 0.000000 -1.000000
vn -0.000000 0.000000 -1.000000
vn -0.000001 0.000000 -1.000000
vn -0.000001 0.000000 -1.000000
vn 0.000000 0.000000 -1.000000
vn 0.000001 0.000000 -1.000000
vn 0.000000 0.000000 -1.000000
vn -0.000000 0.000000 -1.000000
vn 0.000000 0.000000 -1.000000
vn 0.000000 0.000000 -1.000000
vn -0.000000 0.000000 -1.000000
vn -0.000000 0.000000 -1.000000
vn 0.000000 0.000000 -1.000000
vn 0.000001 0.000000 -1.000000
vn -0.000000 0.000000 -1.000000
vn -0.000001 0.000000 -1.000000
vn 0.000000 0.000000 -1.000000
vn 0.000000 0.000000 -1.000000
vn -0.000000 0.000000 -1.000000
vn 0.000000 0.000000 -1.000000
vn 0.000002 0.000000 1.000000
vn 0.000002 0.000000 1.000000
vn -0.000000 0.000000 1.000000
vn 0.000000 0.000000 1.000000
vn 0.000000 0.000000 1.000000
vn 0.000000 0.000000 1.000000
vn 0.000000 0.000000 1.000000
vn 0.000000 0.000000 1.000000
vn -0.000002 0.000000 1.000000
vn -0.000002 0.000000 1.000000
vn 0.000000 0.000000 1.000000
vn -0.000002 0.000000 1.000000
vn -0.000000 0.000000 1.000000
vn 0.000002 0.000000 1.000000
vn 0.000000 0.000000 1.000000
vn -0.000003 0.000000 1.000000
vn -0.000003 0.000000 1.000000
vn 0.000000 0.000000 1.000000
vn 0.000002 0.000000 1.000000
vn 0.000002 0.000000 1.000000
vn 0.000000 0.000000 1.000000
s 1
g pCylinder1
f 75/161/179 76/162/180 95/182/181
f 95/182/181 76/162/180 96/183/182
f 76/162/180 77/163/183 96/183/182
f 96/183/182 77/163/183 97/184/184
f 77/163/183 78/164/185 97/184/184
f 97/184/184 78/164/185 98/185/186
f 78/164/185 79/165/187 98/185/186
f 98/185/186 79/165/187 99/186/188
f 79/165/187 80/166/189 99/186/188
f 99/186/188 80/166/189 100/187/190
f 80/166/189 81/167/191 100/187/190
f 100/187/190 81/167/191 101/188/192
f 81/167/191 82/168/193 101/188/192
f 101/188/192 82/168/193 102/189/194
f 82/168/193 83/169/195 102/189/194
f 102/189/194 83/169/195 103/190/196
f 83/169/195 84/170/197 103/190/196
f 103/190/196 84/170/197 104/191/198
f 84/170/197 85/171/199 104/191/198
f 104/191/198 85/171/199 105/192/200
f 85/171/199 86/172/201 105/192/200
f 105/192/200 86/172/201 106/193/202
f 86/172/201 87/173/203 106/193/202
f 106/193/202 87/173/203 107/194/204
f 87/173/203 88/174/205 107/194/204
f 107/194/204 88/174/205 108/195/206
f 88/174/205 89/175/207 108/195/206
f 108/195/206 89/175/207 109/196/208
f 89/175/207 90/176/209 109/196/208
f 109/196/208 90/176/209 110/197/210
f 90/176/209 91/177/211 110/197/210
f 110/197/210 91/177/211 111/198/212
f 91/177/211 92/178/213 111/198/212
f 111/198/212 92/178/213 112/199/214
f 92/178/213 93/179/215 112/199/214
f 112/199/214 93/179/215 113/200/216
f 93/179/215 94/180/217 113/200/216
f 113/200/216 94/180/217 114/201/218
f 94/180/217 75/181/179 114/201/218
f 114/201/218 75/181/179 95/202/181
s 2
f 76/142/219 75/141/220 115/223/221
f 77/143/222 76/142/219 115/223/221
f 78/144/223 77/143/222 115/223/221
f 79/145/224 78/144/223 115/223/221
f 80/146/225 79/145/224 115/223/221
f 81/147/226 80/146/225 115/223/221
f 82/148/227 81/147/226 115/223/221
f 83/149/228 82/148/227 115/223/221
f 84/150/229 83/149/228 115/223/221
f 85/151/230 84/150/229 115/223/221
f 86/152/231 85/151/230 115/223/221
f 87/153/232 86/152/231 115/223/221
f 88/154/233 87/153/232 115/223/221
f 89/155/234 88/154/233 115/223/221
f 90/156/235 89/155/234 115/223/221
f 91/157/236 90/156/235 115/223/221
f 92/158/237 91/157/236 115/223/221
f 93/159/238 92/158/237 115/223/221
f 94/160/239 93/159/238 115/223/221
f 75/141/220 94/160/239 115/223/221
s 3
f 95/221/240 96/220/241 116/224/242
f 96/220/241 97/219/243 116/224/242
f 97/219/243 98/218/244 116/224/242
f 98/218/244 99/217/245 116/224/242
f 99/217/245 100/216/246 116/224/242
f 100/216/246 101/215/247 116/224/242
f 101/215/247 102/214/248 116/224/242
f 102/214/248 103/213/249 116/224/242
f 103/213/249 104/212/250 116/224/242
f 104/212/250 105/211/251 116/224/242
f 105/211/251 106/210/252 116/224/242
f 106/210/252 107/209/253 116/224/242
f 107/209/253 108/208/254 116/224/242
f 108/208/254 109/207/255 116/224/242
f 109/207/255 110/206/256 116/224/242
f 110/206/256 111/205/257 116/224/242
f 111/205/257 112/204/258 116/224/242
f 112/204/258 113/203/259 116/224/242
f 113/203/259 114/222/260 116/224/242
f 114/222/260 95/221/240 116/224/242
